<svg width="208" height="41" viewBox="0 0 208 41" fill="none" xmlns="http://www.w3.org/2000/svg">
<g clip-path="url(#clip0_2022_13290)">
<path fill-rule="evenodd" clip-rule="evenodd" d="M43.0689 6.28566L46.4308 15.942H43.0627V19.656H47.9554L51.2394 27.7094H55.4616L44.4759 -0.00854492H43.0627V6.3028L43.0689 6.28566ZM66.8369 8.4358L73.9911 19.0698H76.2194L83.3736 8.4358V27.7094H87.2829V0.343383H84.1556L75.125 13.6354L66.0942 0.343383H62.8883V27.7094H66.8369V8.4358ZM107.455 6.28566L110.817 15.942H104.014L107.455 6.28566ZM115.625 27.7094H119.848L108.862 -0.00854492H105.969L94.9834 27.7094H99.2449C100.105 25.4419 101.473 22.1581 102.529 19.656H112.341L115.625 27.7094ZM134.056 4.33077H137.83C144.163 4.33077 147.369 9.21775 147.369 14.0657C147.369 18.9131 144.163 23.7608 137.83 23.7608H134.056V27.7094H137.83C146.782 27.7094 151.278 20.9071 151.278 14.0657C151.278 7.22405 146.782 0.382433 137.83 0.382433H134.056V4.33077ZM164.139 16.0201H176.532V12.0327H164.139V4.33077H176.806V0.382433H160.151V27.7094H176.844V23.7608H164.139V16.0201ZM183.333 0.382433L193.459 16.5675V27.7094H197.446V16.5675L207.611 0.382433H202.919L195.452 12.3844L187.985 0.382433H183.333Z" fill="#1A2F53"/>
<path fill-rule="evenodd" clip-rule="evenodd" d="M46.9804 37.8578C46.9431 38.2952 46.7847 38.6331 46.5056 38.8727C46.2278 39.122 45.8571 39.2472 45.3945 39.2472C44.8376 39.2472 44.3989 39.0482 44.0776 38.6503C43.7576 38.2474 43.5971 37.6935 43.5971 36.9883C43.5971 36.2846 43.755 35.7379 44.0714 35.3484C44.3867 34.9653 44.8265 34.7736 45.3872 34.7736C45.822 34.7736 46.176 34.8793 46.4491 35.0905C46.7231 35.3067 46.8835 35.5989 46.9307 35.9687H47.4044C47.3718 35.4786 47.176 35.0879 46.8172 34.7955C46.4491 34.496 45.973 34.3462 45.3872 34.3462C44.6839 34.3462 44.1296 34.5795 43.7239 35.045C43.3108 35.5206 43.1042 36.1701 43.1042 36.9956C43.1042 37.8212 43.3084 38.4745 43.7177 38.9548C44.1235 39.4353 44.6753 39.6749 45.3737 39.6749C45.9825 39.6749 46.4707 39.5101 46.8391 39.1822C47.2013 38.8617 47.4044 38.4193 47.4477 37.8578H46.9804ZM51.6119 39.5272V34.9062H53.2402V34.4641H49.5201V34.9062H51.1409V39.5272H51.6119ZM56.6003 38.9096L58.2202 34.4688H57.7537L56.6003 37.6428L55.4455 34.4688H54.9794L56.3661 38.2043L56.232 38.6931C56.1477 38.8948 56.0641 39.0346 55.9843 39.111C55.8855 39.2165 55.7501 39.2694 55.5811 39.2694L55.4105 39.241L55.2762 39.2191V39.6244C55.3283 39.6377 55.3804 39.6475 55.4323 39.6525C55.4794 39.6625 55.5313 39.6675 55.5882 39.6675C55.8382 39.6675 56.0437 39.6022 56.2033 39.472C56.3504 39.3565 56.4822 39.1686 56.6003 38.9096ZM61.7505 34.4641V34.7588C61.7505 35.5327 61.666 36.2649 61.4957 36.9564C61.2407 38.0129 60.8074 38.8691 60.1935 39.5272L60.144 40.5642H60.4557C60.4838 40.2423 60.5404 40.0027 60.625 39.8442C60.7431 39.633 60.9292 39.5272 61.184 39.5272H64.0887C64.3194 39.5272 64.5175 39.6084 64.6832 39.7718C64.852 39.9449 64.9923 40.2089 65.1009 40.5642H65.356L65.2703 39.5272C65.0769 39.5272 64.9114 39.4746 64.775 39.3686C64.6433 39.2682 64.5768 39.1453 64.5768 39.0015V34.4641H61.7505ZM62.2289 34.8988H64.0984V39.0924H61.0755C61.4812 38.4929 61.7902 37.7205 62.0028 36.7756C62.149 36.0903 62.2241 35.4653 62.2289 34.8988ZM70.9796 34.4676V34.7772L68.2404 38.4905V34.4676H67.7621V39.5272H68.2404V39.2032L70.9796 35.4825V39.5272H71.458V34.4676H70.9796ZM78.0526 39.5334V34.6262H76.3133C75.975 34.6262 75.7273 34.636 75.5716 34.6557C75.3311 34.6838 75.1305 34.7465 74.9712 34.8422C74.7731 34.9529 74.6148 35.1089 74.4976 35.3115C74.3888 35.4984 74.3346 35.6987 74.3346 35.9099C74.3346 36.1837 74.4061 36.427 74.5473 36.6382C74.6935 36.8594 74.8998 37.019 75.1691 37.1149C74.9191 37.1959 74.7504 37.3383 74.6594 37.5397C74.5992 37.6788 74.5519 37.945 74.5181 38.3384L74.4616 38.9722C74.4485 39.0963 74.4265 39.1994 74.3986 39.2815C74.3695 39.3577 74.3345 39.4182 74.2924 39.461V39.5334H74.8228C74.8468 39.4758 74.8672 39.4022 74.8865 39.3098C74.9046 39.2239 74.9215 39.116 74.936 38.9867L74.9929 38.4536C75.0208 37.9883 75.0979 37.6862 75.2258 37.5471C75.3577 37.4035 75.6368 37.3309 76.0606 37.3309H77.5816V39.5334H78.0526ZM77.5816 36.889H76.1935C75.7211 36.889 75.3746 36.8125 75.1534 36.6592C74.936 36.5006 74.8274 36.2573 74.8274 35.9318C74.8274 35.8115 74.8601 35.6899 74.9265 35.5646C74.9979 35.4358 75.0945 35.3301 75.2164 35.2477C75.3299 35.1667 75.476 35.1136 75.6561 35.0905C75.7646 35.0758 75.9533 35.0684 76.2229 35.0684H77.5816V36.889ZM83.3863 39.5272H83.8501V35.1803L85.431 39.5272H85.8417L87.4301 35.1803V39.5272H87.894V34.4676H87.2213L85.6437 38.7853L84.059 34.4676H83.3863V39.5272ZM90.8723 39.5272H94.3728V39.0851H91.3435V37.169H94.0335V36.734H91.3435V34.9062H94.2882V34.4641H90.8723V39.5272ZM97.5834 39.0924V37.0878H99.1413C99.5616 37.0878 99.8832 37.1714 100.105 37.3395C100.322 37.5066 100.431 37.7488 100.431 38.0657C100.431 38.4193 100.322 38.681 100.105 38.8481C99.8927 39.0112 99.5714 39.0924 99.1413 39.0924H97.5834ZM97.1122 39.5272H99.1413C99.7209 39.5272 100.162 39.3972 100.464 39.1379C100.756 38.8836 100.902 38.526 100.902 38.0643C100.902 37.6466 100.756 37.3114 100.464 37.0559C100.147 36.7868 99.7066 36.653 99.1402 36.653H97.5834V34.8988H100.648V34.4641H97.1122V39.5272ZM103.431 39.5272H106.932V39.0851H103.902V37.169H106.592V36.734H103.902V34.9062H106.847V34.4641H103.431V39.5272ZM110.773 34.4641V36.4835C110.773 37.2892 110.641 37.8862 110.376 38.2757C110.093 38.7019 109.602 38.9781 108.904 39.1024L109.137 39.5346C109.841 39.3479 110.362 39.0186 110.701 38.5484C111.053 38.0693 111.229 37.4183 111.229 36.5978V34.9284H112.99V39.5272H113.483V34.9284V34.4641H110.773ZM119.366 34.4676V34.7772L116.627 38.4905V34.4676H116.148V39.5272H116.627V39.2032L119.366 35.4825V39.5272H119.845V34.4676H119.366Z" fill="#7D7D7D"/>
<path fill-rule="evenodd" clip-rule="evenodd" d="M131.965 0.382324H128.017V27.7433H131.965V0.382324ZM131.965 35.0688H128.017V39.0174H131.965V35.0688Z" fill="#1A2F53"/>
<path fill-rule="evenodd" clip-rule="evenodd" d="M135.732 34.4641V34.7589C135.732 35.5328 135.644 36.265 135.466 36.9564C135.201 38.0129 134.748 38.8692 134.108 39.5273L134.056 40.5643H134.381C134.41 40.2424 134.47 40.0028 134.558 39.8442C134.681 39.633 134.875 39.5273 135.141 39.5273H138.173C138.414 39.5273 138.62 39.6085 138.793 39.7719C138.969 39.945 139.116 40.209 139.229 40.5643H139.495L139.406 39.5273C139.204 39.5273 139.031 39.4747 138.889 39.3687C138.751 39.2682 138.682 39.1454 138.682 39.0016V34.4641H135.732ZM136.232 34.8989H138.183V39.0925H135.028C135.451 38.493 135.774 37.7205 135.996 36.7757C136.148 36.0904 136.227 35.4654 136.232 34.8989ZM145.363 34.4677V34.7773L142.505 38.4906V34.4677H142.006V39.5273H142.505V39.2032L145.363 35.4825V39.5273H145.862V34.4677H145.363ZM148.662 38.0301V38.0375C148.662 38.5375 148.814 38.9304 149.119 39.2178C149.424 39.5078 149.843 39.6526 150.375 39.6526C150.896 39.6526 151.312 39.5114 151.623 39.2278C151.926 38.9501 152.079 38.578 152.079 38.1122C152.079 37.7808 152.001 37.5067 151.843 37.2905C151.697 37.0755 151.477 36.9172 151.188 36.8164C151.423 36.6862 151.604 36.5276 151.727 36.3412C151.851 36.1483 151.913 35.9259 151.913 35.6702C151.913 35.2723 151.78 34.953 151.515 34.7134C151.246 34.4689 150.881 34.3463 150.424 34.3463C149.941 34.3463 149.559 34.4837 149.279 34.7589C148.999 35.028 148.848 35.4049 148.828 35.889H149.324C149.332 35.5242 149.43 35.2466 149.611 35.0537C149.799 34.8623 150.066 34.7663 150.416 34.7663C150.721 34.7663 150.962 34.8499 151.14 35.0168C151.318 35.1804 151.406 35.3975 151.406 35.6702C151.406 35.99 151.305 36.2292 151.103 36.3878C150.905 36.55 150.608 36.6309 150.21 36.6309L150.017 36.6236V37.0657H150.246C150.69 37.0657 151.016 37.1469 151.228 37.3103C151.437 37.4736 151.542 37.7353 151.542 38.0951C151.542 38.4599 151.441 38.7411 151.239 38.9378C151.038 39.1344 150.742 39.2325 150.353 39.2325C149.984 39.2325 149.695 39.1271 149.489 38.9156C149.282 38.7044 149.179 38.4096 149.179 38.0301H148.662ZM154.044 39.5273H154.568L155.188 37.9872H157.64L158.246 39.5273H158.77L156.702 34.4677H156.111L154.044 39.5273ZM155.358 37.567L156.399 34.9689L157.463 37.567H155.358ZM164.549 34.4677V34.7773L161.691 38.4906V34.4677H161.191V39.5273H161.691V39.2032L164.549 35.4825V39.5273H165.048V34.4677H164.549ZM162.371 33.3953H161.88C161.88 33.6596 161.971 33.8684 162.153 34.022C162.36 34.2036 162.671 34.2948 163.09 34.2948C163.508 34.2948 163.823 34.2036 164.035 34.022C164.221 33.8634 164.315 33.6546 164.315 33.3953H163.823C163.823 33.5638 163.774 33.7 163.674 33.8058C163.552 33.9443 163.357 34.0146 163.09 34.0146C162.824 34.0146 162.628 33.942 162.505 33.7984C162.415 33.6877 162.371 33.5538 162.371 33.3953ZM168.103 39.5273H168.595V37.0584H171.696V39.5273H172.187V34.4641H171.696V36.6309H168.595V34.4641H168.103V39.5273ZM174.492 39.5273H175.017L175.637 37.9872H176.845V37.567H175.807L176.845 34.977V34.4677H176.559L174.492 39.5273Z" fill="#7D7D7D"/>
<path d="M38.0646 2.85156H3.21216V37.6838H38.0646V2.85156Z" fill="#1A2F53"/>
<path fill-rule="evenodd" clip-rule="evenodd" d="M0.294434 -0.00854492H40.9541V40.6512H0.294434V-0.00854492ZM1.02615 0.722932H40.2224V39.9194H1.02615V0.722932Z" fill="url(#paint0_linear_2022_13290)"/>
<path fill-rule="evenodd" clip-rule="evenodd" d="M23.6423 28.5639L24.3788 28.562L22.5477 34.1288H17.4291L15.2306 37.3357H3.60986V3.30664H16.7705V4.02478H4.34134V36.5935H14.6832L16.9364 33.3721H21.8153L23.6423 28.5639Z" fill="#FEFEFE"/>
<path fill-rule="evenodd" clip-rule="evenodd" d="M20.624 19.864C25.9705 19.864 30.305 24.1983 30.305 29.5451C30.305 32.1119 29.3052 34.4449 27.6749 36.1774H24.3873L23.7699 34.9602H23.0234L22.2212 34.9609L22.5707 35.7093L23.497 37.6935H25.8536C24.3456 38.6633 22.5505 39.2262 20.624 39.2262C18.6917 39.2262 16.8918 38.6597 15.3808 37.6842H15.6658L17.8076 34.5599H22.9262L25.0823 28.1112H24.0208L24.0213 28.1093L23.2848 28.1112L21.4578 32.9191H16.5789L14.3257 36.1405H13.5378C11.9282 34.4118 10.9429 32.0936 10.9429 29.5451C10.9429 24.1983 15.2772 19.864 20.624 19.864Z" fill="#FEFEFE"/>
<path fill-rule="evenodd" clip-rule="evenodd" d="M23.6112 35.3518L24.2287 36.569H36.8171V4.04025H21.519V15.1386L19.3914 18.3816H22.6147V16.732L23.5424 19.2203C22.6216 18.9295 21.6156 18.7721 20.6239 18.7721C19.6319 18.7721 18.7238 18.9145 17.8428 19.1784L20.6658 14.9414V3.30664H37.6385V37.3357H23.7915L22.8648 35.3518H23.6112Z" fill="#FEFEFE"/>
</g>
<defs>
<linearGradient id="paint0_linear_2022_13290" x1="36.421" y1="33.5764" x2="4.82758" y2="7.06571" gradientUnits="userSpaceOnUse">
<stop stop-color="#898989"/>
<stop offset="0.129412" stop-color="#C5C6C6"/>
<stop offset="0.258824" stop-color="#898989"/>
<stop offset="0.490196" stop-color="#B2B3B3"/>
<stop offset="0.678431" stop-color="#898989"/>
<stop offset="0.870588" stop-color="#C5C6C6"/>
<stop offset="1" stop-color="#898989"/>
</linearGradient>
<clipPath id="clip0_2022_13290">
<rect width="208" height="41" fill="white"/>
</clipPath>
</defs>
</svg>
