<svg width="36" height="38" viewBox="0 0 36 38" fill="none" xmlns="http://www.w3.org/2000/svg">
<path d="M35.7702 0.860107H0.917725V35.6923H35.7702V0.860107Z" fill="#1A2F53"/>
<path fill-rule="evenodd" clip-rule="evenodd" d="M21.3479 26.5724L22.0844 26.5705L20.2533 32.1373H15.1347L12.9362 35.3442H1.31543V1.31519H14.4761V2.03333H2.04691V34.602H12.3888L14.642 31.3806H19.5209L21.3479 26.5724Z" fill="#FEFEFE"/>
<path fill-rule="evenodd" clip-rule="evenodd" d="M18.3295 17.8726C23.676 17.8726 28.0105 22.2069 28.0105 27.5537C28.0105 30.1205 27.0107 32.4535 25.3804 34.186H22.0928L21.4754 32.9688H20.7289L19.9267 32.9695L20.2762 33.7179L21.2025 35.7021H23.5591C22.0511 36.6719 20.256 37.2348 18.3295 37.2348C16.3972 37.2348 14.5973 36.6683 13.0863 35.6928H13.3713L15.5131 32.5685H20.6317L22.7878 26.1198H21.7263L21.7268 26.1179L20.9903 26.1198L19.1633 30.9277H14.2844L12.0312 34.1491H11.2433C9.63374 32.4204 8.64844 30.1022 8.64844 27.5537C8.64844 22.2069 12.9827 17.8726 18.3295 17.8726Z" fill="#FEFEFE"/>
<path fill-rule="evenodd" clip-rule="evenodd" d="M21.3167 33.3603L21.9342 34.5775H34.5226V2.0488H19.2245V13.1471L17.0969 16.3901H20.3202V14.7405L21.2479 17.2288C20.3271 16.938 19.3211 16.7806 18.3294 16.7806C17.3374 16.7806 16.4293 16.923 15.5483 17.1869L18.3713 12.9499V1.31519H35.344V35.3442H21.497L20.5703 33.3603H21.3167Z" fill="#FEFEFE"/>
</svg>
