<svg width="24" height="25" viewBox="0 0 24 25" fill="none" xmlns="http://www.w3.org/2000/svg">
<path d="M6.85742 7.78568V6.92854C6.85742 4.5616 8.7762 2.64282 11.1431 2.64282V2.64282C13.5101 2.64282 15.4289 4.5616 15.4289 6.92854V7.78568" stroke="#1A2F53" stroke-width="1.71429" stroke-linecap="round"/>
<path fill-rule="evenodd" clip-rule="evenodd" d="M17.4675 11.245H5.50841C4.96404 11.245 4.55757 11.7459 4.66963 12.2786L6.17854 19.4517C6.26199 19.8484 6.61194 20.1324 7.01732 20.1324H15.9586C16.364 20.1324 16.714 19.8484 16.7974 19.4517L18.3063 12.2786C18.4184 11.7459 18.0119 11.245 17.4675 11.245ZM5.50841 9.53076C3.87528 9.53076 2.65588 11.0334 2.99206 12.6315L4.50097 19.8046C4.75131 20.9947 5.80117 21.8467 7.01732 21.8467H15.9586C17.1748 21.8467 18.2246 20.9947 18.475 19.8046L19.9839 12.6315C20.3201 11.0334 19.1007 9.53076 17.4675 9.53076H5.50841Z" fill="#1A2F53"/>
</svg>
