<svg width="20" height="19" viewBox="0 0 20 19" fill="none" xmlns="http://www.w3.org/2000/svg">
<path d="M6.1228 4.51439V4.51439C6.1228 2.79593 7.5159 1.40283 9.23436 1.40283H10.2197C11.9381 1.40283 13.3312 2.79593 13.3312 4.51439V4.51439" stroke="white" stroke-width="1.97049" stroke-linecap="round"/>
<path fill-rule="evenodd" clip-rule="evenodd" d="M2.95295 9.23367C2.78603 8.04786 3.70669 6.98853 4.9042 6.98853H15.2069C16.4044 6.98853 17.3251 8.04785 17.1582 9.23367L16.3071 15.2802C16.1702 16.2527 15.338 16.976 14.3558 16.976H5.75531C4.77316 16.976 3.94096 16.2527 3.80406 15.2802L2.95295 9.23367ZM7.37398 9.15414C7.92431 9.10767 8.42718 9.5141 8.49717 10.0619L8.95724 13.6627C9.02724 14.2106 8.63785 14.6923 8.08753 14.7388C7.5372 14.7853 7.03433 14.3789 6.96433 13.831L6.50426 10.2302C6.43427 9.68239 6.82365 9.20061 7.37398 9.15414ZM11.5738 10.0619C11.6438 9.5141 12.1467 9.10767 12.697 9.15414C13.2473 9.20061 13.6367 9.68239 13.5667 10.2302L13.1066 13.831C13.0366 14.3789 12.5338 14.7853 11.9834 14.7388C11.4331 14.6923 11.0437 14.2106 11.1137 13.6627L11.5738 10.0619Z" fill="white"/>
</svg>
