<svg width="15" height="15" viewBox="0 0 15 15" fill="none" xmlns="http://www.w3.org/2000/svg">
<path opacity="0.5" fill-rule="evenodd" clip-rule="evenodd" d="M7.03152 14.063C10.9149 14.063 14.063 10.9149 14.063 7.03152C14.063 3.14812 10.9149 0 7.03152 0C3.14812 0 0 3.14812 0 7.03152C0 10.9149 3.14812 14.063 7.03152 14.063ZM7.68857 3.59561C7.68857 3.1814 7.35278 2.84561 6.93857 2.84561C6.52435 2.84561 6.18857 3.1814 6.18857 3.59561V6.75616C6.18857 7.15398 6.3466 7.53551 6.62791 7.81682L9.06349 10.2524C9.35638 10.5453 9.83126 10.5453 10.1242 10.2524C10.417 9.95951 10.417 9.48463 10.1242 9.19174L7.68857 6.75616V3.59561Z" fill="#D9D9D9"/>
</svg>
