<svg width="10" height="10" viewBox="0 0 10 10" fill="none" xmlns="http://www.w3.org/2000/svg">
  <path d="M9.24284 0.757493C9.63337 1.14802 9.63337 1.78118 9.24284 2.17171L2.17178 9.24277C1.78125 9.6333 1.14809 9.6333 0.757563 9.24277V9.24277C0.367039 8.85225 0.367039 8.21908 0.757563 7.82856L7.82863 0.757493C8.21916 0.366968 8.85232 0.366969 9.24284 0.757493V0.757493Z" fill="white" />
  <path d="M0.757493 0.7574C1.14802 0.366875 1.78118 0.366875 2.17171 0.7574L9.24277 7.82847C9.6333 8.21899 9.6333 8.85216 9.24277 9.24268V9.24268C8.85225 9.63321 8.21908 9.63321 7.82856 9.24268L0.757493 2.17161C0.366968 1.78109 0.366969 1.14792 0.757493 0.7574V0.7574Z" fill="white" />
</svg>