<svg width="31" height="31" viewBox="0 0 31 31" fill="none" xmlns="http://www.w3.org/2000/svg">
<path fill-rule="evenodd" clip-rule="evenodd" d="M10.3609 5.29998C10.927 3.10031 12.9238 1.47498 15.3002 1.47498C17.6766 1.47498 19.6734 3.10031 20.2395 5.29998H25.5002C26.2044 5.29998 26.7752 5.87081 26.7752 6.57498C26.7752 7.27914 26.2044 7.84997 25.5002 7.84997H24.7805L23.6642 24.5946C23.5749 25.9341 22.4623 26.975 21.1199 26.975H9.48052C8.13804 26.975 7.02547 25.9341 6.93617 24.5946L5.81986 7.84997H5.1002C4.39603 7.84997 3.8252 7.27914 3.8252 6.57498C3.8252 5.87081 4.39603 5.29998 5.1002 5.29998H10.3609ZM13.0913 5.29998C13.5322 4.53778 14.3563 4.02498 15.3002 4.02498C16.2441 4.02498 17.0681 4.53778 17.509 5.29998H13.0913ZM14.0252 12.95C14.0252 12.2458 13.4544 11.675 12.7502 11.675C12.046 11.675 11.4752 12.2458 11.4752 12.95L11.4752 19.325C11.4752 20.0291 12.046 20.6 12.7502 20.6C13.4544 20.6 14.0252 20.0291 14.0252 19.325L14.0252 12.95ZM17.8502 11.675C18.5544 11.675 19.1252 12.2458 19.1252 12.95V19.325C19.1252 20.0291 18.5544 20.6 17.8502 20.6C17.146 20.6 16.5752 20.0291 16.5752 19.325V12.95C16.5752 12.2458 17.146 11.675 17.8502 11.675Z" fill="#E7E0DB"/>
</svg>
