<svg width="31" height="31" viewBox="0 0 31 31" fill="none" xmlns="http://www.w3.org/2000/svg">
<path fill-rule="evenodd" clip-rule="evenodd" d="M2.93018 7.99448V22.4399C2.93018 23.1441 3.50101 23.7149 4.20518 23.7149H5.2365C5.23488 23.665 5.23407 23.6148 5.23407 23.5645C5.23407 21.0452 7.2764 19.0028 9.79574 19.0028C12.3151 19.0028 14.3574 21.0452 14.3574 23.5645C14.3574 23.6148 14.3566 23.665 14.355 23.7149H18.7756C18.774 23.665 18.7732 23.6148 18.7732 23.5645C18.7732 21.0452 20.8155 19.0028 23.3348 19.0028C25.8542 19.0028 27.8965 21.0452 27.8965 23.5645C27.8965 23.6148 27.8957 23.665 27.8941 23.7149H27.9257C28.6298 23.7149 29.2007 23.1441 29.2007 22.4399V17.237C29.2007 17.0457 29.1576 16.8569 29.0747 16.6845L25.7882 9.8485C25.5759 9.40683 25.1292 9.12595 24.6391 9.12595H20.5282C19.8637 9.12595 19.3249 8.58724 19.3249 7.92271C19.3249 7.25819 18.7862 6.71948 18.1217 6.71948H4.20518C3.50101 6.71948 2.93018 7.29032 2.93018 7.99448ZM20.5462 12.8622L21.0392 15.1863C21.1642 15.7753 21.6843 16.1967 22.2865 16.1967H24.7449C25.6512 16.1967 26.2682 15.2777 25.925 14.4389L24.9743 12.1149C24.7783 11.6357 24.312 11.3226 23.7942 11.3226H21.7935C20.9828 11.3226 20.378 12.0692 20.5462 12.8622Z" fill="#E7E0DB"/>
<path d="M13.0608 23.5645C13.0608 25.3846 11.5853 26.8601 9.76526 26.8601C7.94519 26.8601 6.46973 25.3846 6.46973 23.5645C6.46973 21.7445 7.94519 20.269 9.76526 20.269C11.5853 20.269 13.0608 21.7445 13.0608 23.5645Z" fill="#E7E0DB"/>
<path d="M23.4083 26.8601C25.2284 26.8601 26.7038 25.3846 26.7038 23.5645C26.7038 21.7445 25.2284 20.269 23.4083 20.269C21.5882 20.269 20.1128 21.7445 20.1128 23.5645C20.1128 25.3846 21.5882 26.8601 23.4083 26.8601Z" fill="#E7E0DB"/>
</svg>
