<svg width="16" height="11" viewBox="0 0 16 11" fill="none" xmlns="http://www.w3.org/2000/svg">
<path fill-rule="evenodd" clip-rule="evenodd" d="M14.0941 0.0550839C13.9655 0.01919 13.83 0 13.6899 0H1.5C1.41773 0 1.33701 0.00662318 1.25834 0.0193654L5.98879 4.29071C6.81978 5.04105 8.07603 5.06623 8.93642 4.3498L14.0941 0.0550839ZM0.090444 0.985825C0.0319264 1.1462 0 1.31937 0 1.5V7.55957L3.68539 4.23186L0.090444 0.985825ZM4.8045 5.24236L0.0112003 9.57046C0.102012 10.312 0.733944 10.8862 1.5 10.8862H13.6899C14.4528 10.8862 15.0827 10.3167 15.1776 9.57964L10.0887 5.34224L9.89625 5.5025C8.46226 6.69655 6.36851 6.65458 4.98353 5.40402L4.8045 5.24236ZM11.2608 4.36627L15.1899 7.63799V1.5C15.1899 1.37315 15.1742 1.24999 15.1446 1.13234L11.2608 4.36627Z" fill="#D9D9D9"/>
</svg>
