<svg width="24" height="25" viewBox="0 0 24 25" fill="none" xmlns="http://www.w3.org/2000/svg">
<path d="M11.5525 20.2764L11.5525 20.2764C11.7211 20.3707 11.8717 20.4549 12.0045 20.5306L12.4287 20.7722L12.8529 20.5306C12.9857 20.4549 13.1361 20.3708 13.3047 20.2765L12.8863 19.5285L13.3047 20.2765L13.333 20.2607C14.7157 19.4874 17.1764 18.1111 19.0181 16.2562C21.3514 13.9061 22.2859 11.617 22.2859 9.9129C22.2859 6.87984 19.9219 4.35721 16.9288 4.35721C15.0259 4.35721 13.3773 5.37679 12.4288 6.89886C11.4802 5.37677 9.83148 4.35721 7.92867 4.35721C4.93552 4.35721 2.57157 6.87984 2.57157 9.9129C2.57157 11.617 3.50604 13.9061 5.83934 16.2562C7.68099 18.1111 10.1415 19.4872 11.5243 20.2606L11.5525 20.2764Z" stroke="#1A2F53" stroke-width="1.71429"/>
</svg>
