<svg width="31" height="32" viewBox="0 0 31 32" fill="none" xmlns="http://www.w3.org/2000/svg">
<path d="M14.9472 5.86822C14.6096 5.19089 14.3128 4.59524 13.8503 4.14231C13.4453 3.74559 12.9571 3.44388 12.4211 3.25901C11.8092 3.04794 11.1437 3.04882 10.3869 3.04982L6.58076 3.04996C5.90865 3.04993 5.32883 3.04991 4.85125 3.08893C4.34718 3.13012 3.84583 3.22104 3.36339 3.46686C2.64367 3.83357 2.05852 4.41872 1.69181 5.13844C1.446 5.62088 1.35507 6.12223 1.31388 6.6263C1.27487 7.10384 1.27488 7.68362 1.2749 8.35567V23.2441C1.27488 23.9162 1.27487 24.4961 1.31388 24.9736C1.35507 25.4777 1.446 25.979 1.69181 26.4615C2.05852 27.1812 2.64367 27.7663 3.3634 28.1331C3.84583 28.3789 4.34718 28.4698 4.85125 28.511C5.20195 28.5396 5.6078 28.5472 6.06483 28.5492C6.44397 28.5471 6.5495 28.5402 6.62364 28.5255C7.12942 28.4249 7.5248 28.0295 7.6254 27.5237C7.64373 27.4316 7.6499 27.291 7.6499 26.6375L7.6499 18.5558C7.64988 17.8837 7.64986 17.3039 7.68888 16.8263C7.73006 16.3223 7.82099 15.8209 8.0668 15.3385C8.43352 14.6188 9.01867 14.0336 9.73839 13.6669C10.2208 13.4211 10.7222 13.3302 11.2262 13.289C11.7038 13.2499 12.2836 13.25 12.9558 13.25H25.294C25.9662 13.25 26.546 13.2499 27.0236 13.289C27.5276 13.3302 28.029 13.4211 28.5114 13.6669C28.8073 13.8176 29.0804 14.0053 29.3249 14.224V13.4558C29.3249 12.7837 29.325 12.2039 29.2859 11.7263C29.2447 11.2222 29.1538 10.7209 28.908 10.2384C28.5413 9.51872 27.9561 8.93357 27.2364 8.56686C26.754 8.32104 26.2526 8.23012 25.7486 8.18893C25.271 8.14991 24.6912 8.14993 24.0191 8.14996L17.8215 8.14996C16.8137 8.14996 16.614 8.13332 16.4602 8.08027C16.2815 8.01865 16.1188 7.91808 15.9838 7.78584C15.8675 7.672 15.7633 7.50078 15.3126 6.59941L14.9472 5.86822Z" fill="#E7E0DB"/>
<path d="M27.9778 27.6388C27.9933 27.56 28.008 27.4557 28.0194 27.316C28.0489 26.9547 28.0499 26.4801 28.0499 25.745V18.605C28.0499 17.8699 28.0489 17.3952 28.0194 17.034C27.9911 16.6876 27.9431 16.5592 27.9109 16.4962C27.7887 16.2562 27.5936 16.0612 27.3537 15.939C27.2907 15.9068 27.1623 15.8588 26.8159 15.8305C26.4547 15.801 25.98 15.8 25.2449 15.8H13.0049C12.2698 15.8 11.7951 15.801 11.4339 15.8305C11.0875 15.8588 10.9591 15.9068 10.8961 15.939C10.6562 16.0612 10.4611 16.2562 10.3389 16.4962C10.3067 16.5592 10.2587 16.6876 10.2304 17.034C10.2009 17.3952 10.1999 17.8699 10.1999 18.605L10.2 26.7444C10.2003 27.2298 10.2007 27.6478 10.1264 28.0212C10.0903 28.2025 10.0417 28.3791 9.9813 28.55H24.0191C24.6912 28.55 25.271 28.55 25.7486 28.511C26.2526 28.4698 26.754 28.3789 27.2364 28.1331C27.5035 27.997 27.7521 27.8308 27.9778 27.6388Z" fill="#E7E0DB"/>
</svg>
