<svg width="31" height="31" viewBox="0 0 31 31" fill="none" xmlns="http://www.w3.org/2000/svg">
<path d="M10.3714 7.69868C10.3714 6.29036 11.5131 5.14868 12.9214 5.14868H17.6996C19.1079 5.14868 20.2496 6.29036 20.2496 7.69868V17.8485C21.0711 17.425 21.6329 16.5683 21.6329 15.5804V8.24856C21.6329 7.85757 21.5449 7.48713 21.3876 7.15597H22.662C24.0703 7.15597 25.212 8.29764 25.212 9.70597V15.5804L25.2118 15.6074C24.9102 15.5304 24.5941 15.4894 24.2685 15.4894C22.5741 15.4894 21.1388 16.5986 20.6491 18.1304H10.3714V7.69868Z" fill="#E7E0DB"/>
<path d="M8.98821 24.419V24.2025C9.27701 24.3203 9.59302 24.3853 9.92419 24.3853H20.8169C21.0594 24.3853 21.2937 24.3505 21.5152 24.2856V24.419C21.5152 25.8274 22.6569 26.969 24.0652 26.969H24.7396C26.1479 26.969 27.2896 25.8274 27.2896 24.419V19.1978C27.2896 17.7895 26.1479 16.6478 24.7396 16.6478H24.0652C22.6569 16.6478 21.5152 17.7895 21.5152 19.1978V19.5274C21.2937 19.4625 21.0594 19.4277 20.8169 19.4277H9.92419C9.59302 19.4277 9.27701 19.4926 8.98821 19.6105V19.1978C8.98821 17.7895 7.84654 16.6478 6.43821 16.6478H5.76387C4.35554 16.6478 3.21387 17.7895 3.21387 19.1978V24.419C3.21387 25.8274 4.35554 26.969 5.76387 26.969H6.43821C7.84654 26.969 8.98821 25.8274 8.98821 24.419Z" fill="#E7E0DB"/>
<path d="M8.9881 8.24856C8.9881 7.85757 9.0761 7.48713 9.23337 7.15597H7.62843C6.2201 7.15597 5.07843 8.29764 5.07843 9.70597V15.7525C5.50949 15.5827 5.97909 15.4894 6.47047 15.4894C7.43621 15.4894 8.31779 15.8497 8.9881 16.4433V8.24856Z" fill="#E7E0DB"/>
</svg>
