<svg width="31" height="32" viewBox="0 0 31 32" fill="none" xmlns="http://www.w3.org/2000/svg">
<path fill-rule="evenodd" clip-rule="evenodd" d="M21.6311 0.38112C21.3801 0.234604 21.0688 0.174108 20.751 0.21008L19.2071 0.384865C18.7273 0.439185 18.2908 0.706183 18.0577 1.08792L9.93612 14.3873C9.92584 14.4041 9.93059 14.4238 9.94731 14.4335C9.95698 14.4392 9.96299 14.4484 9.9638 14.4588L10.4604 20.8101C10.5019 21.341 10.941 21.7099 11.4852 21.7836C11.5417 21.8202 11.5986 21.851 11.6553 21.875C12.5182 22.2401 13.3014 22.3497 14.1175 22.4639C14.6416 22.5373 15.1794 22.6125 15.7605 22.7586C16.9574 23.0594 18.3888 23.4303 20.3655 24.1363L20.4367 24.1618C18.7109 24.101 16.9939 24.0057 15.2781 23.9104C12.6047 23.7621 9.93432 23.6139 7.23792 23.5964L7.08024 23.5952C5.47794 23.5829 2.38958 23.5592 2.25739 25.1091C2.12072 26.7115 3.9122 27.2476 4.96659 27.4958C6.67505 27.8981 7.65089 28.0946 8.64125 28.2941L8.97007 28.3604C9.17086 28.401 9.4843 28.4428 9.82964 28.4889C10.7079 28.6061 11.7924 28.7508 11.7547 28.9726C11.7171 29.193 9.52143 29.4623 7.94543 29.6556C7.31266 29.7332 6.77979 29.7986 6.52661 29.8436C6.34797 29.8754 6.13984 29.9082 5.92132 29.9426C5.05873 30.0786 4.03422 30.2401 4.02275 30.4639C4.00838 30.7444 5.51477 30.7862 6.17803 30.793L6.27301 30.7939C7.52814 30.807 9.87426 30.8315 11.8406 30.4637C12.8466 30.2755 13.9999 30.0564 14.3653 29.5396C14.9127 28.7656 13.1857 27.7015 12.342 27.4956C11.1747 27.2107 10.2892 27.0195 9.57015 26.8641C9.04775 26.7513 8.61314 26.6574 8.22203 26.5603C8.1254 26.5364 7.96106 26.499 7.75602 26.4523C6.78522 26.2312 4.90255 25.8026 4.97422 25.6098C5.06104 25.3763 10.8593 25.7249 13.7542 26.0466C16.8377 26.3892 19.1583 26.5615 20.8258 26.5944C21.6583 26.6109 22.3506 26.5932 22.9054 26.5396C23.4225 26.4896 23.952 26.3982 24.3714 26.1898C24.5857 26.0833 24.9009 25.8832 25.1137 25.5176C25.3593 25.0956 25.3577 24.6483 25.2345 24.2943C25.1274 23.9868 24.9379 23.7642 24.7944 23.6222C24.6405 23.4699 24.4639 23.3367 24.2886 23.2209C23.6135 22.7746 22.5295 22.3096 21.2528 21.8536C19.1741 21.1113 17.6605 20.7194 16.4338 20.4111L16.249 20.3647C16.0705 20.3198 15.8715 20.2723 15.6596 20.2226L18.0498 19.1893C18.0664 19.1821 18.0852 19.1828 18.0993 19.191C18.1236 19.2052 18.159 19.1959 18.1739 19.1714L26.3468 5.78793C26.5455 5.46254 26.5731 5.09126 26.4221 4.77646L25.4936 2.84124C25.4037 2.65391 25.2549 2.49593 25.0626 2.38371L21.6311 0.38112ZM12.5305 29.6881L12.5273 29.6862C12.5366 29.6925 12.5386 29.6929 12.5305 29.6881ZM17.5168 17.6065C17.6636 16.9388 17.5993 14.9531 16.067 14.0466C14.5346 13.1401 12.7415 13.3975 12.2229 13.8451L12.4793 19.6297L17.5168 17.6065Z" fill="#E7E0DB"/>
</svg>
