<svg width="31" height="32" viewBox="0 0 31 32" fill="none" xmlns="http://www.w3.org/2000/svg">
<path d="M10.1998 3.05005C8.79148 3.05005 7.64981 4.19172 7.64981 5.60005H22.9498C22.9498 4.19172 21.8081 3.05005 20.3998 3.05005H10.1998Z" fill="#E7E0DB"/>
<path fill-rule="evenodd" clip-rule="evenodd" d="M9.89215 8.15005H20.7075C21.7338 8.15003 22.5809 8.15002 23.2709 8.2064C23.9876 8.26495 24.6464 8.39062 25.2652 8.70592C26.2248 9.19487 27.005 9.97507 27.4939 10.9347C27.8092 11.5535 27.9349 12.2123 27.9935 12.929C28.0498 13.619 28.0498 14.466 28.0498 15.4924V20.3719L22.5764 14.8985C22.0784 14.4006 21.2712 14.4006 20.7732 14.8985L14.0248 21.6469L12.3764 19.9985C12.1373 19.7594 11.813 19.625 11.4748 19.625C11.1367 19.625 10.8124 19.7594 10.5732 19.9985L3.78918 26.7826C3.52283 26.474 3.2929 26.1329 3.10567 25.7654C2.79038 25.1466 2.66471 24.4878 2.60615 23.7711C2.54978 23.0811 2.54979 22.2341 2.54981 21.2078V15.4924C2.54979 14.4661 2.54978 13.619 2.60615 12.929C2.66471 12.2123 2.79038 11.5535 3.10567 10.9347C3.59463 9.97507 4.37483 9.19487 5.33446 8.70592C5.95326 8.39062 6.61206 8.26495 7.32873 8.2064C8.01874 8.15002 8.86584 8.15003 9.89215 8.15005ZM12.7498 15.1625C12.7498 16.2188 11.8936 17.075 10.8373 17.075C9.78106 17.075 8.92481 16.2188 8.92481 15.1625C8.92481 14.1063 9.78106 13.25 10.8373 13.25C11.8936 13.25 12.7498 14.1063 12.7498 15.1625Z" fill="#E7E0DB"/>
<path d="M5.93681 28.2412C6.37762 28.3825 6.8397 28.4537 7.32873 28.4937C8.01873 28.5501 8.86577 28.5501 9.89206 28.55H20.7074C21.7337 28.5501 22.5809 28.5501 23.2709 28.4937C23.9876 28.4351 24.6464 28.3095 25.2652 27.9942C26.2248 27.5052 27.005 26.725 27.4939 25.7654C27.7888 25.1867 27.9178 24.5729 27.9812 23.9096L21.6748 17.6032L14.9264 24.3516C14.4284 24.8495 13.6212 24.8495 13.1232 24.3516L11.4748 22.7032L5.93681 28.2412Z" fill="#E7E0DB"/>
</svg>
