<svg width="19" height="18" viewBox="0 0 19 18" fill="none" xmlns="http://www.w3.org/2000/svg">
<path d="M8.75789 0.772418C8.93659 0.384982 9.48724 0.384983 9.66594 0.772418L11.9758 5.78028C12.0487 5.93818 12.1983 6.04691 12.371 6.06738L17.8476 6.71671C18.2713 6.76695 18.4414 7.29064 18.1282 7.58033L14.0792 11.3247C13.9515 11.4428 13.8944 11.6187 13.9283 11.7892L15.0031 17.1984C15.0862 17.6169 14.6407 17.9405 14.2684 17.7321L9.45613 15.0384C9.3044 14.9535 9.11943 14.9535 8.96769 15.0384L4.15539 17.7321C3.78309 17.9405 3.33761 17.6169 3.42076 17.1984L4.49556 11.7892C4.52945 11.6187 4.47229 11.4428 4.34462 11.3247L0.295659 7.58033C-0.0175906 7.29064 0.152568 6.76695 0.576265 6.71671L6.05282 6.06738C6.22551 6.04691 6.37515 5.93818 6.44798 5.78028L8.75789 0.772418Z" fill="#E8DF0B"/>
</svg>
