<svg width="22" height="22" viewBox="0 0 22 22" fill="none" xmlns="http://www.w3.org/2000/svg">
<path opacity="0.5" d="M10.4532 1.77242C10.6319 1.38498 11.1825 1.38498 11.3613 1.77242L13.6712 6.78028C13.744 6.93818 13.8936 7.04691 14.0663 7.06738L19.5429 7.71671C19.9666 7.76695 20.1367 8.29064 19.8235 8.58033L15.7745 12.3247C15.6469 12.4428 15.5897 12.6187 15.6236 12.7892L16.6984 18.1984C16.7815 18.6169 16.3361 18.9405 15.9637 18.7321L11.1514 16.0384C10.9997 15.9535 10.8147 15.9535 10.663 16.0384L5.85071 18.7321C5.4784 18.9405 5.03292 18.6169 5.11607 18.1984L6.19087 12.7892C6.22476 12.6187 6.1676 12.4428 6.03993 12.3247L1.99097 8.58033C1.67772 8.29064 1.84788 7.76695 2.27158 7.71671L7.74814 7.06738C7.92082 7.04691 8.07046 6.93818 8.14329 6.78028L10.4532 1.77242Z" fill="#D9D9D9"/>
<path opacity="0.6" fill-rule="evenodd" clip-rule="evenodd" d="M10.9336 1.48249V15.9754C10.8407 15.9705 10.7468 15.9915 10.663 16.0384L5.8507 18.7321C5.4784 18.9405 5.03292 18.6169 5.11607 18.1984L6.19086 12.7892C6.22475 12.6186 6.1676 12.4427 6.03993 12.3247L1.99097 8.5803C1.67772 8.29061 1.84788 7.76692 2.27157 7.71668L7.74813 7.06735C7.92081 7.04688 8.07046 6.93815 8.14329 6.78025L10.4532 1.77239C10.5469 1.56933 10.7427 1.4727 10.9336 1.48249Z" fill="#E8DF0B"/>
</svg>
