<svg width="22" height="22" viewBox="0 0 22 22" fill="none" xmlns="http://www.w3.org/2000/svg">
  <path d="M10.4532 1.77239C10.6319 1.38495 11.1825 1.38495 11.3613 1.77239L13.6712 6.78025C13.744 6.93815 13.8936 7.04688 14.0663 7.06735L19.5429 7.71668C19.9666 7.76692 20.1367 8.29061 19.8235 8.5803L15.7745 12.3247C15.6469 12.4428 15.5897 12.6187 15.6236 12.7892L16.6984 18.1984C16.7815 18.6169 16.3361 18.9405 15.9637 18.7321L11.1514 16.0384C10.9997 15.9535 10.8147 15.9535 10.663 16.0384L5.85071 18.7321C5.4784 18.9405 5.03292 18.6169 5.11607 18.1984L6.19087 12.7892C6.22476 12.6187 6.1676 12.4428 6.03993 12.3247L1.99097 8.5803C1.67772 8.29061 1.84788 7.76692 2.27158 7.71668L7.74814 7.06735C7.92082 7.04688 8.07046 6.93815 8.14329 6.78025L10.4532 1.77239Z" fill="#E8DF0B" />
</svg>