<svg width="23" height="23" viewBox="0 0 23 23" fill="none" xmlns="http://www.w3.org/2000/svg">
<path d="M11.6689 0.140625C5.45613 0.140625 0.418945 5.17781 0.418945 11.3906C0.418945 17.6034 5.45613 22.6406 11.6689 22.6406C17.8818 22.6406 22.9189 17.6034 22.9189 11.3906C22.9189 5.17781 17.8818 0.140625 11.6689 0.140625ZM17.1946 7.84781L15.3477 16.5478C15.2118 17.1647 14.8443 17.3147 14.3314 17.0241L11.5189 14.9522L10.1633 16.2591C10.0321 16.4278 9.82863 16.5356 9.60082 16.5356C9.59894 16.5356 9.59801 16.5356 9.59613 16.5356L9.79582 13.6725L15.0083 8.96437C15.2333 8.76469 14.9577 8.65125 14.6586 8.85094L8.21895 12.9066L5.44395 12.0403C4.84395 11.85 4.82707 11.4403 5.57051 11.1459L16.4136 6.96656C16.918 6.78281 17.3568 7.08656 17.1936 7.84875L17.1946 7.84781Z" fill="#1A2F53"/>
</svg>
