<svg width="24" height="25" viewBox="0 0 24 25" fill="none" xmlns="http://www.w3.org/2000/svg">
<path d="M3.58319 21.1585L4.43837 21.1004L4.43837 21.1004L3.58319 21.1585ZM4.77891 22.3542L4.83695 21.499L4.83694 21.499L4.77891 22.3542ZM18.6757 22.3542L18.6176 21.499L18.6176 21.499L18.6757 22.3542ZM19.8714 21.1585L19.0162 21.1004L19.0162 21.1004L19.8714 21.1585ZM15.5254 7.53363C15.5254 9.63138 13.8248 11.3319 11.727 11.3319V13.0462C14.7716 13.0462 17.2396 10.5782 17.2396 7.53363H15.5254ZM11.727 3.73532C13.8248 3.73532 15.5254 5.43588 15.5254 7.53363H17.2396C17.2396 4.4891 14.7716 2.02103 11.727 2.02103V3.73532ZM7.92874 7.53363C7.92874 5.43588 9.6293 3.73532 11.727 3.73532V2.02103C8.68253 2.02103 6.21445 4.4891 6.21445 7.53363H7.92874ZM11.727 11.3319C9.6293 11.3319 7.92874 9.63138 7.92874 7.53363H6.21445C6.21445 10.5782 8.68252 13.0462 11.727 13.0462V11.3319ZM11.7273 16.2311C13.4464 16.2311 15.3168 16.4086 16.7324 17.1036C17.4253 17.4437 17.9848 17.8962 18.3744 18.4936C18.7619 19.0878 19.0172 19.8799 19.0172 20.9605H20.7315C20.7315 19.597 20.4048 18.4688 19.8103 17.5572C19.2179 16.6488 18.3953 16.0102 17.4879 15.5647C15.7029 14.6884 13.4997 14.5168 11.7273 14.5168V16.2311ZM4.43739 20.9605C4.43739 19.8799 4.69268 19.0878 5.08017 18.4936C5.46979 17.8962 6.02926 17.4437 6.72214 17.1036C8.13774 16.4086 10.0082 16.2311 11.7273 16.2311V14.5168C9.95485 14.5168 7.75173 14.6884 5.9667 15.5647C5.05926 16.0102 4.23665 16.6488 3.64426 17.5572C3.04974 18.4688 2.7231 19.597 2.7231 20.9605H4.43739ZM4.43837 21.1004C4.43844 21.1014 4.43798 21.0955 4.43769 21.0717C4.4374 21.0467 4.43739 21.014 4.43739 20.9605H2.7231C2.7231 21.0494 2.7226 21.1367 2.72802 21.2165L4.43837 21.1004ZM4.83694 21.499C4.62311 21.4845 4.45288 21.3143 4.43837 21.1004L2.72802 21.2165C2.80057 22.2856 3.65174 23.1368 4.72087 23.2094L4.83694 21.499ZM4.97688 21.5C4.92338 21.5 4.89065 21.5 4.86571 21.4997C4.84186 21.4994 4.83597 21.4989 4.83695 21.499L4.72087 23.2094C4.80063 23.2148 4.88794 23.2143 4.97688 23.2143V21.5ZM18.4777 21.5H4.97688V23.2143H18.4777V21.5ZM18.6176 21.499C18.6186 21.4989 18.6127 21.4994 18.5889 21.4997C18.5639 21.5 18.5312 21.5 18.4777 21.5V23.2143C18.5666 23.2143 18.6539 23.2148 18.7337 23.2094L18.6176 21.499ZM19.0162 21.1004C19.0017 21.3143 18.8315 21.4845 18.6176 21.499L18.7337 23.2094C19.8028 23.1368 20.654 22.2856 20.7266 21.2165L19.0162 21.1004ZM19.0172 20.9605C19.0172 21.014 19.0172 21.0467 19.0169 21.0717C19.0166 21.0955 19.0161 21.1014 19.0162 21.1004L20.7266 21.2165C20.732 21.1367 20.7315 21.0494 20.7315 20.9605H19.0172Z" fill="#1A2F53"/>
</svg>
