<svg width="32" height="19" viewBox="0 0 32 19" fill="none" xmlns="http://www.w3.org/2000/svg">
<path d="M30.0739 14.4299C29.4003 13.616 28.6348 12.8866 27.8946 12.1812C27.6314 11.9303 27.3592 11.6709 27.0968 11.413C26.3436 10.6718 26.3162 10.3933 26.9126 9.55134C27.3251 8.97097 27.7626 8.38983 28.1856 7.82781C28.5694 7.3179 28.9662 6.79059 29.3465 6.26157L29.4246 6.1528C30.1515 5.14044 30.9033 4.09362 31.3033 2.8308C31.4072 2.49763 31.5163 2.00735 31.2669 1.59738C31.0176 1.18776 30.5341 1.06279 30.192 1.00442C30.0228 0.975533 29.8548 0.971591 29.6989 0.971591L24.9385 0.968162L24.8992 0.96782C24.1795 0.96782 23.6944 1.30922 23.4164 2.01164C23.1511 2.68277 22.8596 3.39745 22.527 4.07699C21.8651 5.43015 21.0244 6.98868 19.8079 8.28852L19.7565 8.34381C19.6128 8.4992 19.4501 8.67517 19.3311 8.67517C19.3129 8.67517 19.2931 8.67166 19.2706 8.66455C19.0186 8.56572 18.8495 7.95175 18.8572 7.66616C18.8572 7.66221 18.8573 7.65827 18.8573 7.65433L18.854 2.11638C18.854 2.09718 18.8526 2.07815 18.8502 2.05912C18.7291 1.15887 18.4608 0.59848 17.4473 0.398682C17.4204 0.393282 17.3929 0.390625 17.3655 0.390625H12.4156C11.6092 0.390625 11.1649 0.720536 10.7472 1.21433C10.6344 1.34633 10.3997 1.62113 10.5161 1.95447C10.6341 2.29278 11.0172 2.36512 11.142 2.38861C11.7612 2.50723 12.1103 2.88849 12.2091 3.55465C12.3818 4.71144 12.403 5.94614 12.2759 7.44039C12.2405 7.85567 12.1704 8.17641 12.0549 8.45043C12.0281 8.51438 11.933 8.72309 11.836 8.72317C11.8052 8.72317 11.716 8.711 11.5536 8.59838C11.1696 8.33361 10.8887 7.95578 10.5612 7.48907C9.447 5.90414 8.5119 4.15816 7.70206 2.15015C7.40171 1.41096 6.84078 0.997133 6.12189 0.984962C5.33197 0.972876 4.61581 0.967048 3.93276 0.967048C3.18645 0.967048 2.49455 0.973991 1.81892 0.988134C1.24054 0.998419 0.840469 1.17293 0.629962 1.50721C0.419114 1.84175 0.432824 2.28121 0.670752 2.81314C2.57537 7.07508 4.30226 10.1739 6.27023 12.8612C7.64917 14.7415 9.03229 16.0431 10.6225 16.9569C12.2979 17.9216 14.1754 18.3906 16.3622 18.3906C16.6101 18.3906 16.8664 18.3845 17.1249 18.3724C18.3956 18.3101 18.867 17.8471 18.9266 16.6018C18.955 15.9654 19.0241 15.2979 19.335 14.7287C19.5312 14.3701 19.7141 14.3701 19.7742 14.3701C19.89 14.3701 20.0336 14.4237 20.1878 14.5243C20.4644 14.706 20.7016 14.9494 20.896 15.1621C21.079 15.3641 21.2599 15.5682 21.4411 15.7723C21.8319 16.213 22.2361 16.6686 22.6583 17.1006C23.5824 18.047 24.6005 18.4632 25.7698 18.3729H30.1342C30.1435 18.3729 30.1529 18.3725 30.1621 18.3719C30.597 18.3431 30.9737 18.1002 31.1955 17.7058C31.4703 17.2171 31.4648 16.5937 31.1807 16.0378C30.8584 15.4092 30.4403 14.8721 30.0739 14.4299Z" fill="#1A2F53"/>
</svg>
