<svg width="24" height="23" viewBox="0 0 24 23" fill="none" xmlns="http://www.w3.org/2000/svg">
<g clip-path="url(#clip0_2001_6434)">
<path fill-rule="evenodd" clip-rule="evenodd" d="M1.32185 11.1053C1.32185 4.98185 6.34141 0 12.5113 0C18.6806 0 23.6997 4.98185 23.6997 11.1053C23.6997 17.2282 18.6806 22.2095 12.5114 22.2094C10.661 22.2094 8.83278 21.7532 7.21516 20.8889L1.30387 22.7673C1.27443 22.7767 1.24426 22.7812 1.2143 22.7812C1.13612 22.7812 1.05957 22.7502 1.00313 22.6926C0.924949 22.613 0.898321 22.4961 0.93412 22.3904L2.85596 16.7214C1.85188 15.0246 1.32185 13.0859 1.32185 11.1053ZM17.7196 13.0631C17.7515 13.0788 17.771 13.0883 17.7753 13.0904L17.7754 13.0904C17.9929 13.1948 18.1646 13.2773 18.2643 13.4412C18.4099 13.6822 18.3522 14.3464 18.1334 14.9544C17.8557 15.7262 16.6347 16.3589 16.079 16.4081L15.9975 16.4159C15.869 16.4286 15.7234 16.4428 15.5415 16.4428H15.5414C15.1084 16.4428 14.3468 16.3686 12.7384 15.7261C11.0677 15.0587 9.41973 13.6279 8.09775 11.6973C8.09393 11.6917 8.09031 11.6864 8.08688 11.6814C8.06983 11.6564 8.05771 11.6387 8.05056 11.6291C7.70537 11.1741 6.90137 9.97791 6.90137 8.71096C6.90137 7.30326 7.57519 6.5028 7.97349 6.25169C8.34909 6.01493 9.19858 5.9031 9.35457 5.89651C9.44708 5.89261 9.45686 5.89153 9.46665 5.89123C9.47042 5.89111 9.47419 5.89111 9.48268 5.89111C9.81189 5.89111 10.0488 6.09089 10.2281 6.51996C10.246 6.56266 10.3 6.69268 10.3724 6.86671C10.6012 7.41749 11.0133 8.40911 11.0432 8.4688C11.091 8.56266 11.2391 8.85334 11.0658 9.1978L11.0285 9.27258L11.0283 9.27301C10.9574 9.41676 10.8962 9.54093 10.7587 9.70083C10.7146 9.75187 10.6696 9.80601 10.6247 9.86008L10.6244 9.86044C10.5297 9.97445 10.4318 10.0923 10.3414 10.1817C10.3105 10.2127 10.2506 10.2727 10.2441 10.2966C10.2441 10.2966 10.2441 10.2968 10.2442 10.2972C10.2447 10.3008 10.248 10.3215 10.2719 10.3622C10.4573 10.6761 11.8096 12.5371 13.5912 13.311C13.669 13.3448 13.9261 13.4506 13.9409 13.4506C13.9575 13.4506 13.9852 13.423 14.0054 13.3998C14.1606 13.2245 14.6628 12.6374 14.8287 12.3908C14.9755 12.1713 15.1639 12.0595 15.3881 12.0595C15.5254 12.0595 15.6545 12.1017 15.775 12.145C16.0415 12.2409 17.4221 12.9174 17.7196 13.0631Z" fill="#1A2F53"/>
</g>
<defs>
<clipPath id="clip0_2001_6434">
<rect width="22.7812" height="22.7812" fill="white" transform="translate(0.918945)"/>
</clipPath>
</defs>
</svg>
