<svg width="24" height="23" viewBox="0 0 24 23" fill="none" xmlns="http://www.w3.org/2000/svg">
<path fill-rule="evenodd" clip-rule="evenodd" d="M6.06196 0.192383H18.4009C21.2068 0.192383 23.4814 2.46701 23.4814 5.2729V17.5082C23.4814 20.314 21.2068 22.5887 18.4009 22.5887H6.06196C3.25607 22.5887 0.981445 20.314 0.981445 17.5082V5.2729C0.981445 2.46701 3.25607 0.192383 6.06196 0.192383ZM16.7953 6.71166H15.208L12.592 9.70169L10.3305 6.71166H7.05529L10.9686 11.8295L7.25964 16.0689H8.84782L11.7109 12.7981L14.2127 16.0689H17.4071L13.3276 10.6755L16.7953 6.71166ZM15.5306 15.1188H14.6508L8.90891 7.61209H9.85285L15.5306 15.1188Z" fill="#1A2F53"/>
</svg>
